<svg xmlns="http://www.w3.org/2000/svg" xmlns:xlink="http://www.w3.org/1999/xlink" width="1728" zoomAndPan="magnify" viewBox="0 0 1296 1727.999927" height="2304" preserveAspectRatio="xMidYMid meet" version="1.0"><defs><clipPath id="89e7ad2694"><path d="M 129.601562 345.601562 L 1166.398438 345.601562 L 1166.398438 1382.398438 L 129.601562 1382.398438 Z M 129.601562 345.601562 " clip-rule="nonzero"/></clipPath><clipPath id="fc5d2022fb"><path d="M 648 345.601562 C 361.695312 345.601562 129.601562 577.695312 129.601562 864 C 129.601562 1150.304688 361.695312 1382.398438 648 1382.398438 C 934.304688 1382.398438 1166.398438 1150.304688 1166.398438 864 C 1166.398438 577.695312 934.304688 345.601562 648 345.601562 Z M 648 345.601562 " clip-rule="nonzero"/></clipPath><clipPath id="63f206345b"><path d="M 0.601562 0.601562 L 1037.398438 0.601562 L 1037.398438 1037.398438 L 0.601562 1037.398438 Z M 0.601562 0.601562 " clip-rule="nonzero"/></clipPath><clipPath id="1f0b3f024d"><path d="M 519 0.601562 C 232.695312 0.601562 0.601562 232.695312 0.601562 519 C 0.601562 805.304688 232.695312 1037.398438 519 1037.398438 C 805.304688 1037.398438 1037.398438 805.304688 1037.398438 519 C 1037.398438 232.695312 805.304688 0.601562 519 0.601562 Z M 519 0.601562 " clip-rule="nonzero"/></clipPath><clipPath id="01a37c00c7"><rect x="0" width="1038" y="0" height="1038"/></clipPath><clipPath id="c5ab15bf4c"><path d="M 435.53125 390.273438 L 824.332031 390.273438 L 824.332031 788.1875 L 435.53125 788.1875 Z M 435.53125 390.273438 " clip-rule="nonzero"/></clipPath><clipPath id="6bc38ea682"><path d="M 629.929688 390.273438 C 522.566406 390.273438 435.53125 479.324219 435.53125 589.175781 C 435.53125 699.023438 522.566406 788.074219 629.929688 788.074219 C 737.292969 788.074219 824.332031 699.023438 824.332031 589.175781 C 824.332031 479.324219 737.292969 390.273438 629.929688 390.273438 Z M 629.929688 390.273438 " clip-rule="nonzero"/></clipPath><clipPath id="69d67cf6be"><path d="M 0.53125 0.273438 L 389.332031 0.273438 L 389.332031 398.160156 L 0.53125 398.160156 Z M 0.53125 0.273438 " clip-rule="nonzero"/></clipPath><clipPath id="c97a32b949"><path d="M 194.929688 0.273438 C 87.566406 0.273438 0.53125 89.324219 0.53125 199.175781 C 0.53125 309.023438 87.566406 398.074219 194.929688 398.074219 C 302.292969 398.074219 389.332031 309.023438 389.332031 199.175781 C 389.332031 89.324219 302.292969 0.273438 194.929688 0.273438 Z M 194.929688 0.273438 " clip-rule="nonzero"/></clipPath><clipPath id="f610c7e4f8"><rect x="0" width="390" y="0" height="399"/></clipPath><clipPath id="d1f3ad9977"><path d="M 340.617188 415.828125 L 729.417969 415.828125 L 729.417969 813.738281 L 340.617188 813.738281 Z M 340.617188 415.828125 " clip-rule="nonzero"/></clipPath><clipPath id="83447e179a"><path d="M 535.019531 415.828125 C 427.65625 415.828125 340.617188 504.875 340.617188 614.726562 C 340.617188 724.574219 427.65625 813.625 535.019531 813.625 C 642.382812 813.625 729.417969 724.574219 729.417969 614.726562 C 729.417969 504.875 642.382812 415.828125 535.019531 415.828125 Z M 535.019531 415.828125 " clip-rule="nonzero"/></clipPath><clipPath id="5885025924"><path d="M 0.617188 0.828125 L 389.417969 0.828125 L 389.417969 398.738281 L 0.617188 398.738281 Z M 0.617188 0.828125 " clip-rule="nonzero"/></clipPath><clipPath id="a847722c03"><path d="M 195.019531 0.828125 C 87.65625 0.828125 0.617188 89.875 0.617188 199.726562 C 0.617188 309.574219 87.65625 398.625 195.019531 398.625 C 302.382812 398.625 389.417969 309.574219 389.417969 199.726562 C 389.417969 89.875 302.382812 0.828125 195.019531 0.828125 Z M 195.019531 0.828125 " clip-rule="nonzero"/></clipPath><clipPath id="2f50cff2df"><rect x="0" width="390" y="0" height="399"/></clipPath><clipPath id="ed26e5d576"><path d="M 259.199219 466.199219 L 648 466.199219 L 648 864 L 259.199219 864 Z M 259.199219 466.199219 " clip-rule="nonzero"/></clipPath><clipPath id="eae8bb1839"><path d="M 453.601562 466.199219 C 346.234375 466.199219 259.199219 555.25 259.199219 665.101562 C 259.199219 774.949219 346.234375 864 453.601562 864 C 560.964844 864 648 774.949219 648 665.101562 C 648 555.25 560.964844 466.199219 453.601562 466.199219 Z M 453.601562 466.199219 " clip-rule="nonzero"/></clipPath><clipPath id="615bccf5fe"><path d="M 0.199219 0.199219 L 389 0.199219 L 389 398 L 0.199219 398 Z M 0.199219 0.199219 " clip-rule="nonzero"/></clipPath><clipPath id="36b4da7157"><path d="M 194.601562 0.199219 C 87.234375 0.199219 0.199219 89.25 0.199219 199.101562 C 0.199219 308.949219 87.234375 398 194.601562 398 C 301.964844 398 389 308.949219 389 199.101562 C 389 89.25 301.964844 0.199219 194.601562 0.199219 Z M 194.601562 0.199219 " clip-rule="nonzero"/></clipPath><clipPath id="52d2c154b6"><rect x="0" width="389" y="0" height="398"/></clipPath><clipPath id="01fd87c8a0"><path d="M 194.402344 553.488281 L 583.203125 553.488281 L 583.203125 951.402344 L 194.402344 951.402344 Z M 194.402344 553.488281 " clip-rule="nonzero"/></clipPath><clipPath id="eb4561bcad"><path d="M 388.804688 553.488281 C 281.441406 553.488281 194.402344 642.539062 194.402344 752.390625 C 194.402344 862.238281 281.441406 951.289062 388.804688 951.289062 C 496.167969 951.289062 583.203125 862.238281 583.203125 752.390625 C 583.203125 642.539062 496.167969 553.488281 388.804688 553.488281 Z M 388.804688 553.488281 " clip-rule="nonzero"/></clipPath><clipPath id="0c170750d6"><path d="M 0.402344 0.488281 L 389.203125 0.488281 L 389.203125 398.359375 L 0.402344 398.359375 Z M 0.402344 0.488281 " clip-rule="nonzero"/></clipPath><clipPath id="fae300827f"><path d="M 194.804688 0.488281 C 87.441406 0.488281 0.402344 89.539062 0.402344 199.390625 C 0.402344 309.238281 87.441406 398.289062 194.804688 398.289062 C 302.167969 398.289062 389.203125 309.238281 389.203125 199.390625 C 389.203125 89.539062 302.167969 0.488281 194.804688 0.488281 Z M 194.804688 0.488281 " clip-rule="nonzero"/></clipPath><clipPath id="8615358508"><rect x="0" width="390" y="0" height="399"/></clipPath><clipPath id="07e824f127"><path d="M 176.289062 639.273438 L 565.089844 639.273438 L 565.089844 1037.1875 L 176.289062 1037.1875 Z M 176.289062 639.273438 " clip-rule="nonzero"/></clipPath><clipPath id="0789ea3cad"><path d="M 370.6875 639.273438 C 263.324219 639.273438 176.289062 728.324219 176.289062 838.175781 C 176.289062 948.023438 263.324219 1037.074219 370.6875 1037.074219 C 478.050781 1037.074219 565.089844 948.023438 565.089844 838.175781 C 565.089844 728.324219 478.050781 639.273438 370.6875 639.273438 Z M 370.6875 639.273438 " clip-rule="nonzero"/></clipPath><clipPath id="ead560e7e8"><path d="M 0.289062 0.273438 L 389.089844 0.273438 L 389.089844 398.1875 L 0.289062 398.1875 Z M 0.289062 0.273438 " clip-rule="nonzero"/></clipPath><clipPath id="b7ab082cd4"><path d="M 194.6875 0.273438 C 87.324219 0.273438 0.289062 89.324219 0.289062 199.175781 C 0.289062 309.023438 87.324219 398.074219 194.6875 398.074219 C 302.050781 398.074219 389.089844 309.023438 389.089844 199.175781 C 389.089844 89.324219 302.050781 0.273438 194.6875 0.273438 Z M 194.6875 0.273438 " clip-rule="nonzero"/></clipPath><clipPath id="085d49bc79"><rect x="0" width="390" y="0" height="399"/></clipPath><clipPath id="a6539b918e"><path d="M 535.019531 401.3125 L 923.820312 401.3125 L 923.820312 799.222656 L 535.019531 799.222656 Z M 535.019531 401.3125 " clip-rule="nonzero"/></clipPath><clipPath id="37360e5106"><path d="M 729.417969 401.3125 C 622.054688 401.3125 535.019531 490.363281 535.019531 600.210938 C 535.019531 710.0625 622.054688 799.113281 729.417969 799.113281 C 836.78125 799.113281 923.820312 710.0625 923.820312 600.210938 C 923.820312 490.363281 836.78125 401.3125 729.417969 401.3125 Z M 729.417969 401.3125 " clip-rule="nonzero"/></clipPath><clipPath id="c73c3183bc"><path d="M 0.0195312 0.3125 L 388.820312 0.3125 L 388.820312 398.199219 L 0.0195312 398.199219 Z M 0.0195312 0.3125 " clip-rule="nonzero"/></clipPath><clipPath id="502be77259"><path d="M 194.417969 0.3125 C 87.054688 0.3125 0.0195312 89.363281 0.0195312 199.210938 C 0.0195312 309.0625 87.054688 398.113281 194.417969 398.113281 C 301.78125 398.113281 388.820312 309.0625 388.820312 199.210938 C 388.820312 89.363281 301.78125 0.3125 194.417969 0.3125 Z M 194.417969 0.3125 " clip-rule="nonzero"/></clipPath><clipPath id="7b024bb264"><rect x="0" width="389" y="0" height="399"/></clipPath><clipPath id="5984cb2d34"><path d="M 629.929688 440.375 L 1018.730469 440.375 L 1018.730469 838.285156 L 629.929688 838.285156 Z M 629.929688 440.375 " clip-rule="nonzero"/></clipPath><clipPath id="2b60e286d2"><path d="M 824.332031 440.375 C 716.964844 440.375 629.929688 529.425781 629.929688 639.273438 C 629.929688 749.125 716.964844 838.175781 824.332031 838.175781 C 931.695312 838.175781 1018.730469 749.125 1018.730469 639.273438 C 1018.730469 529.425781 931.695312 440.375 824.332031 440.375 Z M 824.332031 440.375 " clip-rule="nonzero"/></clipPath><clipPath id="a17fb6bff4"><path d="M 0.929688 0.375 L 389.730469 0.375 L 389.730469 398.285156 L 0.929688 398.285156 Z M 0.929688 0.375 " clip-rule="nonzero"/></clipPath><clipPath id="763c505188"><path d="M 195.332031 0.375 C 87.964844 0.375 0.929688 89.425781 0.929688 199.273438 C 0.929688 309.125 87.964844 398.175781 195.332031 398.175781 C 302.695312 398.175781 389.730469 309.125 389.730469 199.273438 C 389.730469 89.425781 302.695312 0.375 195.332031 0.375 Z M 195.332031 0.375 " clip-rule="nonzero"/></clipPath><clipPath id="8271f21e07"><rect x="0" width="390" y="0" height="399"/></clipPath><clipPath id="ded5a27d63"><path d="M 489.84375 577.355469 L 878.644531 577.355469 L 878.644531 975.269531 L 489.84375 975.269531 Z M 489.84375 577.355469 " clip-rule="nonzero"/></clipPath><clipPath id="d2beedea5e"><path d="M 684.246094 577.355469 C 576.878906 577.355469 489.84375 666.40625 489.84375 776.253906 C 489.84375 886.105469 576.878906 975.15625 684.246094 975.15625 C 791.609375 975.15625 878.644531 886.105469 878.644531 776.253906 C 878.644531 666.40625 791.609375 577.355469 684.246094 577.355469 Z M 684.246094 577.355469 " clip-rule="nonzero"/></clipPath><clipPath id="c5b8e2c8d1"><path d="M 0.84375 0.355469 L 389.644531 0.355469 L 389.644531 398.269531 L 0.84375 398.269531 Z M 0.84375 0.355469 " clip-rule="nonzero"/></clipPath><clipPath id="255d2e95d0"><path d="M 195.246094 0.355469 C 87.878906 0.355469 0.84375 89.40625 0.84375 199.253906 C 0.84375 309.105469 87.878906 398.15625 195.246094 398.15625 C 302.609375 398.15625 389.644531 309.105469 389.644531 199.253906 C 389.644531 89.40625 302.609375 0.355469 195.246094 0.355469 Z M 195.246094 0.355469 " clip-rule="nonzero"/></clipPath><clipPath id="88fff46891"><rect x="0" width="390" y="0" height="399"/></clipPath><clipPath id="c44b2fb240"><path d="M 708.140625 535.148438 L 1096.9375 535.148438 L 1096.9375 933 L 708.140625 933 Z M 708.140625 535.148438 " clip-rule="nonzero"/></clipPath><clipPath id="3fc25eb498"><path d="M 902.539062 535.148438 C 795.175781 535.148438 708.140625 624.199219 708.140625 734.046875 C 708.140625 843.894531 795.175781 932.945312 902.539062 932.945312 C 1009.902344 932.945312 1096.9375 843.894531 1096.9375 734.046875 C 1096.9375 624.199219 1009.902344 535.148438 902.539062 535.148438 Z M 902.539062 535.148438 " clip-rule="nonzero"/></clipPath><clipPath id="71a3124e2b"><path d="M 0.140625 0.148438 L 388.9375 0.148438 L 388.9375 398 L 0.140625 398 Z M 0.140625 0.148438 " clip-rule="nonzero"/></clipPath><clipPath id="fcca99279c"><path d="M 194.539062 0.148438 C 87.175781 0.148438 0.140625 89.199219 0.140625 199.046875 C 0.140625 308.894531 87.175781 397.945312 194.539062 397.945312 C 301.902344 397.945312 388.9375 308.894531 388.9375 199.046875 C 388.9375 89.199219 301.902344 0.148438 194.539062 0.148438 Z M 194.539062 0.148438 " clip-rule="nonzero"/></clipPath><clipPath id="38297b835a"><rect x="0" width="389" y="0" height="398"/></clipPath><clipPath id="47b74330f2"><path d="M 741.21875 639.273438 L 1130.019531 639.273438 L 1130.019531 1037.1875 L 741.21875 1037.1875 Z M 741.21875 639.273438 " clip-rule="nonzero"/></clipPath><clipPath id="e85bd3d425"><path d="M 935.621094 639.273438 C 828.257812 639.273438 741.21875 728.324219 741.21875 838.175781 C 741.21875 948.023438 828.257812 1037.074219 935.621094 1037.074219 C 1042.984375 1037.074219 1130.019531 948.023438 1130.019531 838.175781 C 1130.019531 728.324219 1042.984375 639.273438 935.621094 639.273438 Z M 935.621094 639.273438 " clip-rule="nonzero"/></clipPath><clipPath id="9a07ce244d"><path d="M 0.21875 0.273438 L 389.019531 0.273438 L 389.019531 398.1875 L 0.21875 398.1875 Z M 0.21875 0.273438 " clip-rule="nonzero"/></clipPath><clipPath id="6396dfbb87"><path d="M 194.621094 0.273438 C 87.257812 0.273438 0.21875 89.324219 0.21875 199.175781 C 0.21875 309.023438 87.257812 398.074219 194.621094 398.074219 C 301.984375 398.074219 389.019531 309.023438 389.019531 199.175781 C 389.019531 89.324219 301.984375 0.273438 194.621094 0.273438 Z M 194.621094 0.273438 " clip-rule="nonzero"/></clipPath><clipPath id="b436402177"><rect x="0" width="390" y="0" height="399"/></clipPath><clipPath id="ba6809b5d5"><path d="M 684.246094 665.101562 L 1073.042969 665.101562 L 1073.042969 1063 L 684.246094 1063 Z M 684.246094 665.101562 " clip-rule="nonzero"/></clipPath><clipPath id="993d392068"><path d="M 878.644531 665.101562 C 771.28125 665.101562 684.246094 754.152344 684.246094 864 C 684.246094 973.847656 771.28125 1062.898438 878.644531 1062.898438 C 986.007812 1062.898438 1073.042969 973.847656 1073.042969 864 C 1073.042969 754.152344 986.007812 665.101562 878.644531 665.101562 Z M 878.644531 665.101562 " clip-rule="nonzero"/></clipPath><clipPath id="969b470024"><path d="M 0.246094 0.101562 L 389.042969 0.101562 L 389.042969 397.960938 L 0.246094 397.960938 Z M 0.246094 0.101562 " clip-rule="nonzero"/></clipPath><clipPath id="10aa93e6e2"><path d="M 194.644531 0.101562 C 87.28125 0.101562 0.246094 89.152344 0.246094 199 C 0.246094 308.847656 87.28125 397.898438 194.644531 397.898438 C 302.007812 397.898438 389.042969 308.847656 389.042969 199 C 389.042969 89.152344 302.007812 0.101562 194.644531 0.101562 Z M 194.644531 0.101562 " clip-rule="nonzero"/></clipPath><clipPath id="5c77c21d27"><rect x="0" width="390" y="0" height="398"/></clipPath><clipPath id="486d6fbcb0"><path d="M 176.289062 691.089844 L 565.089844 691.089844 L 565.089844 1089 L 176.289062 1089 Z M 176.289062 691.089844 " clip-rule="nonzero"/></clipPath><clipPath id="d94c553207"><path d="M 370.6875 691.089844 C 263.324219 691.089844 176.289062 780.140625 176.289062 889.988281 C 176.289062 999.839844 263.324219 1088.890625 370.6875 1088.890625 C 478.050781 1088.890625 565.089844 999.839844 565.089844 889.988281 C 565.089844 780.140625 478.050781 691.089844 370.6875 691.089844 Z M 370.6875 691.089844 " clip-rule="nonzero"/></clipPath><clipPath id="7c23782633"><path d="M 0.289062 0.0898438 L 389.089844 0.0898438 L 389.089844 398 L 0.289062 398 Z M 0.289062 0.0898438 " clip-rule="nonzero"/></clipPath><clipPath id="55eebf62da"><path d="M 194.6875 0.0898438 C 87.324219 0.0898438 0.289062 89.140625 0.289062 198.988281 C 0.289062 308.839844 87.324219 397.890625 194.6875 397.890625 C 302.050781 397.890625 389.089844 308.839844 389.089844 198.988281 C 389.089844 89.140625 302.050781 0.0898438 194.6875 0.0898438 Z M 194.6875 0.0898438 " clip-rule="nonzero"/></clipPath><clipPath id="5172072f89"><rect x="0" width="390" y="0" height="398"/></clipPath><clipPath id="8eea29b1b7"><path d="M 702.1875 975.15625 L 1007.746094 975.15625 L 1007.746094 1287.878906 L 702.1875 1287.878906 Z M 702.1875 975.15625 " clip-rule="nonzero"/></clipPath><clipPath id="4d1ff8d570"><path d="M 854.96875 975.15625 C 770.589844 975.15625 702.1875 1045.140625 702.1875 1131.472656 C 702.1875 1217.804688 770.589844 1287.789062 854.96875 1287.789062 C 939.34375 1287.789062 1007.746094 1217.804688 1007.746094 1131.472656 C 1007.746094 1045.140625 939.34375 975.15625 854.96875 975.15625 Z M 854.96875 975.15625 " clip-rule="nonzero"/></clipPath><clipPath id="a320f7b35d"><path d="M 0.1875 0.15625 L 305.746094 0.15625 L 305.746094 312.839844 L 0.1875 312.839844 Z M 0.1875 0.15625 " clip-rule="nonzero"/></clipPath><clipPath id="b52526c48f"><path d="M 152.96875 0.15625 C 68.589844 0.15625 0.1875 70.140625 0.1875 156.472656 C 0.1875 242.804688 68.589844 312.789062 152.96875 312.789062 C 237.34375 312.789062 305.746094 242.804688 305.746094 156.472656 C 305.746094 70.140625 237.34375 0.15625 152.96875 0.15625 Z M 152.96875 0.15625 " clip-rule="nonzero"/></clipPath><clipPath id="013f368ca1"><rect x="0" width="306" y="0" height="313"/></clipPath><clipPath id="70e4b645e6"><path d="M 194 856 L 936 856 L 936 1314 L 194 1314 Z M 194 856 " clip-rule="nonzero"/></clipPath><clipPath id="354ce56a9e"><path d="M 267.882812 767.101562 L 997.707031 1029.015625 L 863.339844 1403.433594 L 133.515625 1141.519531 Z M 267.882812 767.101562 " clip-rule="nonzero"/></clipPath><clipPath id="c4b513cb2b"><path d="M 632.273438 897.871094 C 431.027344 825.648438 237.804688 850.917969 200.699219 954.308594 C 163.59375 1057.703125 296.65625 1200.066406 497.902344 1272.289062 C 699.148438 1344.511719 892.371094 1319.242188 929.476562 1215.847656 C 966.578125 1112.457031 833.515625 970.09375 632.273438 897.871094 Z M 632.273438 897.871094 " clip-rule="nonzero"/></clipPath><clipPath id="8cf22a8d39"><path d="M 0 0 L 742 0 L 742 458 L 0 458 Z M 0 0 " clip-rule="nonzero"/></clipPath><clipPath id="6a3eb132b1"><path d="M 73.882812 -88.898438 L 803.707031 173.015625 L 669.339844 547.433594 L -60.484375 285.519531 Z M 73.882812 -88.898438 " clip-rule="nonzero"/></clipPath><clipPath id="d22a4e467a"><path d="M 438.273438 41.871094 C 237.027344 -30.351562 43.804688 -5.082031 6.699219 98.308594 C -30.40625 201.703125 102.65625 344.066406 303.902344 416.289062 C 505.148438 488.511719 698.371094 463.242188 735.476562 359.847656 C 772.578125 256.457031 639.515625 114.09375 438.273438 41.871094 Z M 438.273438 41.871094 " clip-rule="nonzero"/></clipPath><clipPath id="b1b36b42fe"><rect x="0" width="742" y="0" height="458"/></clipPath><clipPath id="6b14c6640f"><path d="M 740 901 L 1107 901 L 1107 1209 L 740 1209 Z M 740 901 " clip-rule="nonzero"/></clipPath><clipPath id="7b9753af6f"><path d="M 685.195312 1044.285156 L 1024.464844 837.636719 L 1163.316406 1065.597656 L 824.050781 1272.246094 Z M 685.195312 1044.285156 " clip-rule="nonzero"/></clipPath><clipPath id="69ccc66123"><path d="M 854.390625 941.230469 C 760.949219 998.144531 716.28125 1095.316406 754.621094 1158.265625 C 792.964844 1221.214844 899.800781 1226.105469 993.242188 1169.1875 C 1086.6875 1112.273438 1131.355469 1015.101562 1093.011719 952.152344 C 1054.667969 889.203125 947.835938 884.3125 854.390625 941.230469 Z M 854.390625 941.230469 " clip-rule="nonzero"/></clipPath><clipPath id="39b98b6474"><path d="M 0 0 L 367 0 L 367 308 L 0 308 Z M 0 0 " clip-rule="nonzero"/></clipPath><clipPath id="a16439eb94"><path d="M -54.804688 143.285156 L 284.464844 -63.363281 L 423.316406 164.597656 L 84.050781 371.246094 Z M -54.804688 143.285156 " clip-rule="nonzero"/></clipPath><clipPath id="e9ca2b945a"><path d="M 114.390625 40.230469 C 20.949219 97.144531 -23.71875 194.316406 14.621094 257.265625 C 52.964844 320.214844 159.800781 325.105469 253.242188 268.1875 C 346.6875 211.273438 391.355469 114.101562 353.011719 51.152344 C 314.667969 -11.796875 207.835938 -16.6875 114.390625 40.230469 Z M 114.390625 40.230469 " clip-rule="nonzero"/></clipPath><clipPath id="4fdbe60180"><rect x="0" width="367" y="0" height="308"/></clipPath><clipPath id="df1b064cfe"><path d="M 154.976562 370.976562 L 1141.015625 370.976562 L 1141.015625 1357.015625 L 154.976562 1357.015625 Z M 154.976562 370.976562 " clip-rule="nonzero"/></clipPath><clipPath id="cc386d430e"><path d="M 647.996094 370.976562 C 375.710938 370.976562 154.976562 591.710938 154.976562 863.996094 C 154.976562 1136.285156 375.710938 1357.015625 647.996094 1357.015625 C 920.285156 1357.015625 1141.015625 1136.285156 1141.015625 863.996094 C 1141.015625 591.710938 920.285156 370.976562 647.996094 370.976562 Z M 647.996094 370.976562 " clip-rule="nonzero"/></clipPath><clipPath id="bf1f6d8827"><path d="M 299 955 L 795 955 L 795 1338 L 299 1338 Z M 299 955 " clip-rule="nonzero"/></clipPath><clipPath id="4b84379899"><path d="M 368.066406 889.988281 L 848.902344 1062.550781 L 726.53125 1403.53125 L 245.695312 1230.972656 Z M 368.066406 889.988281 " clip-rule="nonzero"/></clipPath><clipPath id="41eee029ce"><path d="M 607.824219 976.035156 C 475.410156 928.511719 340.671875 966.320312 306.882812 1060.480469 C 273.089844 1154.640625 353.039062 1269.492188 485.457031 1317.015625 C 617.871094 1364.535156 752.609375 1326.726562 786.402344 1232.566406 C 820.191406 1138.410156 740.242188 1023.554688 607.824219 976.035156 Z M 607.824219 976.035156 " clip-rule="nonzero"/></clipPath><clipPath id="158996cd1e"><path d="M 0 0 L 496 0 L 496 383 L 0 383 Z M 0 0 " clip-rule="nonzero"/></clipPath><clipPath id="856c62100f"><path d="M 69.066406 -65.011719 L 549.902344 107.550781 L 427.53125 448.53125 L -53.304688 275.972656 Z M 69.066406 -65.011719 " clip-rule="nonzero"/></clipPath><clipPath id="f23160a6a8"><path d="M 308.824219 21.035156 C 176.410156 -26.488281 41.671875 11.320312 7.882812 105.480469 C -25.910156 199.640625 54.039062 314.492188 186.457031 362.015625 C 318.871094 409.535156 453.609375 371.726562 487.402344 277.566406 C 521.191406 183.410156 441.242188 68.554688 308.824219 21.035156 Z M 308.824219 21.035156 " clip-rule="nonzero"/></clipPath><clipPath id="5b21f1623b"><rect x="0" width="496" y="0" height="383"/></clipPath><clipPath id="624942d441"><path d="M 409.425781 477.21875 L 518.847656 477.21875 L 518.847656 589.207031 L 409.425781 589.207031 Z M 409.425781 477.21875 " clip-rule="nonzero"/></clipPath><clipPath id="e829ff858a"><path d="M 464.136719 477.21875 C 433.921875 477.21875 409.425781 502.28125 409.425781 533.195312 C 409.425781 564.113281 433.921875 589.175781 464.136719 589.175781 C 494.351562 589.175781 518.847656 564.113281 518.847656 533.195312 C 518.847656 502.28125 494.351562 477.21875 464.136719 477.21875 Z M 464.136719 477.21875 " clip-rule="nonzero"/></clipPath><clipPath id="9bb8a77379"><path d="M 0.425781 0.21875 L 109.847656 0.21875 L 109.847656 112.199219 L 0.425781 112.199219 Z M 0.425781 0.21875 " clip-rule="nonzero"/></clipPath><clipPath id="972bf62b75"><path d="M 55.136719 0.21875 C 24.921875 0.21875 0.425781 25.28125 0.425781 56.195312 C 0.425781 87.113281 24.921875 112.175781 55.136719 112.175781 C 85.351562 112.175781 109.847656 87.113281 109.847656 56.195312 C 109.847656 25.28125 85.351562 0.21875 55.136719 0.21875 Z M 55.136719 0.21875 " clip-rule="nonzero"/></clipPath><clipPath id="a86e9a94f4"><rect x="0" width="110" y="0" height="113"/></clipPath><clipPath id="f8f26d23b6"><path d="M 409.425781 477.21875 L 518.84375 477.21875 L 518.84375 588.96875 L 409.425781 588.96875 Z M 409.425781 477.21875 " clip-rule="nonzero"/></clipPath><clipPath id="7ca7c4da39"><path d="M 464.136719 477.21875 C 433.921875 477.21875 409.425781 502.28125 409.425781 533.195312 C 409.425781 564.109375 433.921875 589.167969 464.136719 589.167969 C 494.347656 589.167969 518.84375 564.109375 518.84375 533.195312 C 518.84375 502.28125 494.347656 477.21875 464.136719 477.21875 Z M 464.136719 477.21875 " clip-rule="nonzero"/></clipPath><clipPath id="8c3f8967e9"><path d="M 301.5625 570.09375 L 388.804688 570.09375 L 388.804688 659.382812 L 301.5625 659.382812 Z M 301.5625 570.09375 " clip-rule="nonzero"/></clipPath><clipPath id="856047e6c2"><path d="M 345.183594 570.09375 C 321.089844 570.09375 301.5625 590.078125 301.5625 614.726562 C 301.5625 639.375 321.089844 659.359375 345.183594 659.359375 C 369.273438 659.359375 388.804688 639.375 388.804688 614.726562 C 388.804688 590.078125 369.273438 570.09375 345.183594 570.09375 Z M 345.183594 570.09375 " clip-rule="nonzero"/></clipPath><clipPath id="4c41a78393"><path d="M 0.5625 0.09375 L 87.804688 0.09375 L 87.804688 89.382812 L 0.5625 89.382812 Z M 0.5625 0.09375 " clip-rule="nonzero"/></clipPath><clipPath id="19e83181e1"><path d="M 44.183594 0.09375 C 20.089844 0.09375 0.5625 20.078125 0.5625 44.726562 C 0.5625 69.375 20.089844 89.359375 44.183594 89.359375 C 68.273438 89.359375 87.804688 69.375 87.804688 44.726562 C 87.804688 20.078125 68.273438 0.09375 44.183594 0.09375 Z M 44.183594 0.09375 " clip-rule="nonzero"/></clipPath><clipPath id="9f44f85999"><rect x="0" width="88" y="0" height="90"/></clipPath><clipPath id="c5adda477b"><path d="M 301.5625 570.097656 L 388.5625 570.097656 L 388.5625 659.34375 L 301.5625 659.34375 Z M 301.5625 570.097656 " clip-rule="nonzero"/></clipPath><clipPath id="a8896a3b2e"><path d="M 345.179688 570.097656 C 321.089844 570.097656 301.5625 590.078125 301.5625 614.726562 C 301.5625 639.371094 321.089844 659.351562 345.179688 659.351562 C 369.265625 659.351562 388.796875 639.371094 388.796875 614.726562 C 388.796875 590.078125 369.265625 570.097656 345.179688 570.097656 Z M 345.179688 570.097656 " clip-rule="nonzero"/></clipPath><clipPath id="257b10a0e8"><path d="M 266.296875 707.257812 L 318.664062 707.257812 L 318.664062 760.851562 L 266.296875 760.851562 Z M 266.296875 707.257812 " clip-rule="nonzero"/></clipPath><clipPath id="ad75136d59"><path d="M 292.480469 707.257812 C 278.019531 707.257812 266.296875 719.25 266.296875 734.046875 C 266.296875 748.84375 278.019531 760.835938 292.480469 760.835938 C 306.941406 760.835938 318.664062 748.84375 318.664062 734.046875 C 318.664062 719.25 306.941406 707.257812 292.480469 707.257812 Z M 292.480469 707.257812 " clip-rule="nonzero"/></clipPath><clipPath id="12705df191"><path d="M 0.296875 0.257812 L 52.664062 0.257812 L 52.664062 53.851562 L 0.296875 53.851562 Z M 0.296875 0.257812 " clip-rule="nonzero"/></clipPath><clipPath id="db4219afed"><path d="M 26.480469 0.257812 C 12.019531 0.257812 0.296875 12.25 0.296875 27.046875 C 0.296875 41.84375 12.019531 53.835938 26.480469 53.835938 C 40.941406 53.835938 52.664062 41.84375 52.664062 27.046875 C 52.664062 12.25 40.941406 0.257812 26.480469 0.257812 Z M 26.480469 0.257812 " clip-rule="nonzero"/></clipPath><clipPath id="58717f5109"><rect x="0" width="53" y="0" height="54"/></clipPath><clipPath id="124657857e"><path d="M 266.296875 707.261719 L 318.65625 707.261719 L 318.65625 760.507812 L 266.296875 760.507812 Z M 266.296875 707.261719 " clip-rule="nonzero"/></clipPath><clipPath id="5aad8573aa"><path d="M 292.476562 707.261719 C 278.015625 707.261719 266.296875 719.253906 266.296875 734.046875 C 266.296875 748.839844 278.015625 760.832031 292.476562 760.832031 C 306.933594 760.832031 318.65625 748.839844 318.65625 734.046875 C 318.65625 719.253906 306.933594 707.261719 292.476562 707.261719 Z M 292.476562 707.261719 " clip-rule="nonzero"/></clipPath><clipPath id="5380eb02e6"><path d="M 197.121094 966.300781 L 266.296875 966.300781 L 266.296875 1037.09375 L 197.121094 1037.09375 Z M 197.121094 966.300781 " clip-rule="nonzero"/></clipPath><clipPath id="edbb39b154"><path d="M 231.707031 966.300781 C 212.605469 966.300781 197.121094 982.140625 197.121094 1001.6875 C 197.121094 1021.230469 212.605469 1037.074219 231.707031 1037.074219 C 250.8125 1037.074219 266.296875 1021.230469 266.296875 1001.6875 C 266.296875 982.140625 250.8125 966.300781 231.707031 966.300781 Z M 231.707031 966.300781 " clip-rule="nonzero"/></clipPath><clipPath id="5326d29e25"><path d="M 0.121094 0.300781 L 69.296875 0.300781 L 69.296875 71.09375 L 0.121094 71.09375 Z M 0.121094 0.300781 " clip-rule="nonzero"/></clipPath><clipPath id="673a52695c"><path d="M 34.707031 0.300781 C 15.605469 0.300781 0.121094 16.140625 0.121094 35.6875 C 0.121094 55.230469 15.605469 71.074219 34.707031 71.074219 C 53.8125 71.074219 69.296875 55.230469 69.296875 35.6875 C 69.296875 16.140625 53.8125 0.300781 34.707031 0.300781 Z M 34.707031 0.300781 " clip-rule="nonzero"/></clipPath><clipPath id="0bfe1f8d15"><rect x="0" width="70" y="0" height="72"/></clipPath><clipPath id="766e6828ac"><path d="M 197.121094 966.300781 L 266.121094 966.300781 L 266.121094 1036.800781 L 197.121094 1036.800781 Z M 197.121094 966.300781 " clip-rule="nonzero"/></clipPath><clipPath id="27f1de7789"><path d="M 231.703125 966.300781 C 212.605469 966.300781 197.121094 982.140625 197.121094 1001.683594 C 197.121094 1021.226562 212.605469 1037.066406 231.703125 1037.066406 C 250.804688 1037.066406 266.285156 1021.226562 266.285156 1001.683594 C 266.285156 982.140625 250.804688 966.300781 231.703125 966.300781 Z M 231.703125 966.300781 " clip-rule="nonzero"/></clipPath><clipPath id="7fc63b4e8e"><path d="M 279.113281 1005.609375 L 340.617188 1005.609375 L 340.617188 1068.558594 L 279.113281 1068.558594 Z M 279.113281 1005.609375 " clip-rule="nonzero"/></clipPath><clipPath id="ad4789f649"><path d="M 309.867188 1005.609375 C 292.882812 1005.609375 279.113281 1019.695312 279.113281 1037.074219 C 279.113281 1054.453125 292.882812 1068.539062 309.867188 1068.539062 C 326.851562 1068.539062 340.617188 1054.453125 340.617188 1037.074219 C 340.617188 1019.695312 326.851562 1005.609375 309.867188 1005.609375 Z M 309.867188 1005.609375 " clip-rule="nonzero"/></clipPath><clipPath id="cef579125d"><path d="M 0.113281 0.609375 L 61.617188 0.609375 L 61.617188 63.558594 L 0.113281 63.558594 Z M 0.113281 0.609375 " clip-rule="nonzero"/></clipPath><clipPath id="bcb6e58125"><path d="M 30.867188 0.609375 C 13.882812 0.609375 0.113281 14.695312 0.113281 32.074219 C 0.113281 49.453125 13.882812 63.539062 30.867188 63.539062 C 47.851562 63.539062 61.617188 49.453125 61.617188 32.074219 C 61.617188 14.695312 47.851562 0.609375 30.867188 0.609375 Z M 30.867188 0.609375 " clip-rule="nonzero"/></clipPath><clipPath id="e491fe5b9e"><rect x="0" width="62" y="0" height="64"/></clipPath><clipPath id="a5af057e32"><path d="M 279.117188 1005.609375 L 340.609375 1005.609375 L 340.609375 1068.609375 L 279.117188 1068.609375 Z M 279.117188 1005.609375 " clip-rule="nonzero"/></clipPath><clipPath id="c3495467c8"><path d="M 309.863281 1005.609375 C 292.882812 1005.609375 279.117188 1019.695312 279.117188 1037.070312 C 279.117188 1054.441406 292.882812 1068.527344 309.863281 1068.527344 C 326.84375 1068.527344 340.609375 1054.441406 340.609375 1037.070312 C 340.609375 1019.695312 326.84375 1005.609375 309.863281 1005.609375 Z M 309.863281 1005.609375 " clip-rule="nonzero"/></clipPath><clipPath id="d242af92b1"><path d="M 360.921875 1131.039062 L 409.425781 1131.039062 L 409.425781 1180.683594 L 360.921875 1180.683594 Z M 360.921875 1131.039062 " clip-rule="nonzero"/></clipPath><clipPath id="ff93aef9e6"><path d="M 385.171875 1131.039062 C 371.777344 1131.039062 360.921875 1142.148438 360.921875 1155.855469 C 360.921875 1169.558594 371.777344 1180.667969 385.171875 1180.667969 C 398.566406 1180.667969 409.425781 1169.558594 409.425781 1155.855469 C 409.425781 1142.148438 398.566406 1131.039062 385.171875 1131.039062 Z M 385.171875 1131.039062 " clip-rule="nonzero"/></clipPath><clipPath id="4c787a5ad0"><path d="M 0.921875 0.0390625 L 49.425781 0.0390625 L 49.425781 49.683594 L 0.921875 49.683594 Z M 0.921875 0.0390625 " clip-rule="nonzero"/></clipPath><clipPath id="edfc6b9330"><path d="M 25.171875 0.0390625 C 11.777344 0.0390625 0.921875 11.148438 0.921875 24.855469 C 0.921875 38.558594 11.777344 49.667969 25.171875 49.667969 C 38.566406 49.667969 49.425781 38.558594 49.425781 24.855469 C 49.425781 11.148438 38.566406 0.0390625 25.171875 0.0390625 Z M 25.171875 0.0390625 " clip-rule="nonzero"/></clipPath><clipPath id="ac412098ca"><rect x="0" width="50" y="0" height="50"/></clipPath><clipPath id="6141e2ee54"><path d="M 360.925781 1131.039062 L 409.417969 1131.039062 L 409.417969 1180.539062 L 360.925781 1180.539062 Z M 360.925781 1131.039062 " clip-rule="nonzero"/></clipPath><clipPath id="173c961385"><path d="M 385.171875 1131.039062 C 371.78125 1131.039062 360.925781 1142.148438 360.925781 1155.847656 C 360.925781 1169.550781 371.78125 1180.65625 385.171875 1180.65625 C 398.5625 1180.65625 409.417969 1169.550781 409.417969 1155.847656 C 409.417969 1142.148438 398.5625 1131.039062 385.171875 1131.039062 Z M 385.171875 1131.039062 " clip-rule="nonzero"/></clipPath><clipPath id="3efd628e3c"><path d="M 292.480469 1085.078125 L 361.652344 1085.078125 L 361.652344 1155.875 L 292.480469 1155.875 Z M 292.480469 1085.078125 " clip-rule="nonzero"/></clipPath><clipPath id="0193382046"><path d="M 327.066406 1085.078125 C 307.964844 1085.078125 292.480469 1100.921875 292.480469 1120.464844 C 292.480469 1140.011719 307.964844 1155.855469 327.066406 1155.855469 C 346.167969 1155.855469 361.652344 1140.011719 361.652344 1120.464844 C 361.652344 1100.921875 346.167969 1085.078125 327.066406 1085.078125 Z M 327.066406 1085.078125 " clip-rule="nonzero"/></clipPath><clipPath id="b0a809c002"><path d="M 0.480469 0.078125 L 69.652344 0.078125 L 69.652344 70.875 L 0.480469 70.875 Z M 0.480469 0.078125 " clip-rule="nonzero"/></clipPath><clipPath id="11d0c6283e"><path d="M 35.066406 0.078125 C 15.964844 0.078125 0.480469 15.921875 0.480469 35.464844 C 0.480469 55.011719 15.964844 70.855469 35.066406 70.855469 C 54.167969 70.855469 69.652344 55.011719 69.652344 35.464844 C 69.652344 15.921875 54.167969 0.078125 35.066406 0.078125 Z M 35.066406 0.078125 " clip-rule="nonzero"/></clipPath><clipPath id="f19dc75e4d"><rect x="0" width="70" y="0" height="71"/></clipPath><clipPath id="d36d24745d"><path d="M 292.480469 1085.082031 L 361.480469 1085.082031 L 361.480469 1155.578125 L 292.480469 1155.578125 Z M 292.480469 1085.082031 " clip-rule="nonzero"/></clipPath><clipPath id="2bb460056a"><path d="M 327.0625 1085.082031 C 307.960938 1085.082031 292.480469 1100.921875 292.480469 1120.464844 C 292.480469 1140.003906 307.960938 1155.847656 327.0625 1155.847656 C 346.160156 1155.847656 361.644531 1140.003906 361.644531 1120.464844 C 361.644531 1100.921875 346.160156 1085.082031 327.0625 1085.082031 Z M 327.0625 1085.082031 " clip-rule="nonzero"/></clipPath><clipPath id="c98ef7c192"><path d="M 82 260 L 641 260 L 641 518 L 82 518 Z M 82 260 " clip-rule="nonzero"/></clipPath><clipPath id="f3f5e41d6c"><path d="M 113.621094 207.792969 L 668.039062 376.78125 L 608.9375 570.675781 L 54.523438 401.6875 Z M 113.621094 207.792969 " clip-rule="nonzero"/></clipPath><clipPath id="43ba9eda61"><path d="M 390.800781 292.277344 C 237.71875 245.617188 100.390625 251.195312 84.074219 304.738281 C 67.753906 358.28125 178.621094 439.511719 331.699219 486.171875 C 484.78125 532.832031 622.109375 527.253906 638.429688 473.710938 C 654.75 420.167969 543.882812 338.9375 390.800781 292.277344 Z M 390.800781 292.277344 " clip-rule="nonzero"/></clipPath><clipPath id="fe5b7798cb"><path d="M 0 0 L 559 0 L 559 258 L 0 258 Z M 0 0 " clip-rule="nonzero"/></clipPath><clipPath id="5d79326533"><path d="M 31.621094 -52.207031 L 586.039062 116.78125 L 526.9375 310.675781 L -27.476562 141.6875 Z M 31.621094 -52.207031 " clip-rule="nonzero"/></clipPath><clipPath id="9a7c6f59d5"><path d="M 308.800781 32.277344 C 155.71875 -14.382812 18.390625 -8.804688 2.074219 44.738281 C -14.246094 98.28125 96.621094 179.511719 249.699219 226.171875 C 402.78125 272.832031 540.109375 267.253906 556.429688 213.710938 C 572.75 160.167969 461.882812 78.9375 308.800781 32.277344 Z M 308.800781 32.277344 " clip-rule="nonzero"/></clipPath><clipPath id="f72820e60e"><rect x="0" width="559" y="0" height="258"/></clipPath><clipPath id="7671e3f349"><path d="M 443 337 L 791 337 L 791 520 L 443 520 Z M 443 337 " clip-rule="nonzero"/></clipPath><clipPath id="bb37badb4e"><path d="M 816.070312 434.78125 L 764.152344 605.105469 L 443.464844 507.359375 L 495.382812 337.035156 Z M 816.070312 434.78125 " clip-rule="nonzero"/></clipPath><clipPath id="2457aba93d"><path d="M 790.109375 519.945312 L 443.933594 507.5 L 495.851562 337.175781 Z M 790.109375 519.945312 " clip-rule="nonzero"/></clipPath><clipPath id="e2ae63cffb"><path d="M 1 0 L 347.199219 0 L 347.199219 183 L 1 183 Z M 1 0 " clip-rule="nonzero"/></clipPath><clipPath id="1d59aff23e"><path d="M 373.070312 97.78125 L 321.152344 268.105469 L 0.464844 170.359375 L 52.382812 0.0351562 Z M 373.070312 97.78125 " clip-rule="nonzero"/></clipPath><clipPath id="8cc7c718d3"><path d="M 347.109375 182.945312 L 0.933594 170.5 L 52.851562 0.175781 Z M 347.109375 182.945312 " clip-rule="nonzero"/></clipPath><clipPath id="a250d7e81c"><rect x="0" width="348" y="0" height="183"/></clipPath><clipPath id="6cd03dfb5b"><path d="M 603 449 L 791 449 L 791 534 L 603 534 Z M 603 449 " clip-rule="nonzero"/></clipPath><clipPath id="0fb4eed72f"><path d="M 613.078125 432.15625 L 799.75 489.054688 L 780.878906 550.957031 L 594.210938 494.058594 Z M 613.078125 432.15625 " clip-rule="nonzero"/></clipPath><clipPath id="1355d0185f"><path d="M 706.316406 460.574219 C 654.824219 444.878906 608.855469 446.015625 603.644531 463.105469 C 598.4375 480.199219 635.957031 506.78125 687.449219 522.476562 C 738.941406 538.171875 784.90625 537.039062 790.117188 519.945312 C 795.328125 502.851562 757.808594 476.269531 706.316406 460.574219 Z M 706.316406 460.574219 " clip-rule="nonzero"/></clipPath><clipPath id="e96b38a1ff"><path d="M 0 0 L 188 0 L 188 85 L 0 85 Z M 0 0 " clip-rule="nonzero"/></clipPath><clipPath id="dcfde701a3"><path d="M 10.078125 -16.84375 L 196.75 40.054688 L 177.878906 101.957031 L -8.789062 45.058594 Z M 10.078125 -16.84375 " clip-rule="nonzero"/></clipPath><clipPath id="c7039e74e3"><path d="M 103.316406 11.574219 C 51.824219 -4.121094 5.855469 -2.984375 0.644531 14.105469 C -4.5625 31.199219 32.957031 57.78125 84.449219 73.476562 C 135.941406 89.171875 181.90625 88.039062 187.117188 70.945312 C 192.328125 53.851562 154.808594 27.269531 103.316406 11.574219 Z M 103.316406 11.574219 " clip-rule="nonzero"/></clipPath><clipPath id="b72d4058dd"><rect x="0" width="188" y="0" height="85"/></clipPath><clipPath id="5721f438b2"><path d="M 275 230 L 392 230 L 392 322 L 275 322 Z M 275 230 " clip-rule="nonzero"/></clipPath><clipPath id="5ca068ce27"><path d="M 289.5 216.828125 L 403.367188 251.53125 L 377.90625 335.054688 L 264.042969 300.347656 Z M 289.5 216.828125 " clip-rule="nonzero"/></clipPath><clipPath id="c99df6602f"><path d="M 346.367188 234.160156 C 314.960938 224.585938 283.800781 235.523438 276.773438 258.585938 C 269.742188 281.652344 289.503906 308.109375 320.910156 317.679688 C 352.316406 327.253906 383.472656 316.316406 390.503906 293.253906 C 397.53125 270.1875 377.773438 243.730469 346.367188 234.160156 Z M 346.367188 234.160156 " clip-rule="nonzero"/></clipPath><clipPath id="b950e4b72b"><path d="M 0 0 L 117 0 L 117 92 L 0 92 Z M 0 0 " clip-rule="nonzero"/></clipPath><clipPath id="b0d3da97b1"><path d="M 14.5 -13.171875 L 128.367188 21.53125 L 102.90625 105.054688 L -10.957031 70.347656 Z M 14.5 -13.171875 " clip-rule="nonzero"/></clipPath><clipPath id="76e2f5053c"><path d="M 71.367188 4.160156 C 39.960938 -5.414062 8.800781 5.523438 1.773438 28.585938 C -5.257812 51.652344 14.503906 78.109375 45.910156 87.679688 C 77.316406 97.253906 108.472656 86.316406 115.503906 63.253906 C 122.53125 40.1875 102.773438 13.730469 71.367188 4.160156 Z M 71.367188 4.160156 " clip-rule="nonzero"/></clipPath><clipPath id="17ef4acab8"><rect x="0" width="117" y="0" height="92"/></clipPath><clipPath id="c5554e714e"><path d="M 283 271 L 399 271 L 399 343 L 283 343 Z M 283 271 " clip-rule="nonzero"/></clipPath><clipPath id="1ce504418e"><path d="M 293.539062 258.398438 L 407.425781 293.109375 L 388.558594 355.011719 L 274.671875 320.296875 Z M 293.539062 258.398438 " clip-rule="nonzero"/></clipPath><clipPath id="956c46bc7f"><path d="M 350.40625 275.730469 C 319 266.15625 289.316406 272.253906 284.105469 289.347656 C 278.894531 306.441406 300.132812 328.058594 331.539062 337.632812 C 362.945312 347.203125 392.625 341.105469 397.835938 324.011719 C 403.046875 306.921875 381.8125 285.304688 350.40625 275.730469 Z M 350.40625 275.730469 " clip-rule="nonzero"/></clipPath><clipPath id="a65d06fe37"><path d="M 0 0 L 116 0 L 116 72 L 0 72 Z M 0 0 " clip-rule="nonzero"/></clipPath><clipPath id="41d57697c7"><path d="M 10.539062 -12.601562 L 124.425781 22.109375 L 105.558594 84.011719 L -8.328125 49.296875 Z M 10.539062 -12.601562 " clip-rule="nonzero"/></clipPath><clipPath id="e686415da0"><path d="M 67.40625 4.730469 C 36 -4.84375 6.316406 1.253906 1.105469 18.347656 C -4.105469 35.441406 17.132812 57.058594 48.539062 66.632812 C 79.945312 76.203125 109.625 70.105469 114.835938 53.011719 C 120.046875 35.921875 98.8125 14.304688 67.40625 4.730469 Z M 67.40625 4.730469 " clip-rule="nonzero"/></clipPath><clipPath id="d148e74847"><rect x="0" width="116" y="0" height="72"/></clipPath><clipPath id="7bec18091c"><path d="M 736 397 L 808 397 L 808 513 L 736 513 Z M 736 397 " clip-rule="nonzero"/></clipPath><clipPath id="5478634e4a"><path d="M 723.375 502.570312 L 758.085938 388.683594 L 819.988281 407.550781 L 785.273438 521.4375 Z M 723.375 502.570312 " clip-rule="nonzero"/></clipPath><clipPath id="b0ce1527f9"><path d="M 740.707031 445.703125 C 731.132812 477.109375 737.230469 506.792969 754.324219 512.003906 C 771.417969 517.214844 793.035156 495.976562 802.605469 464.574219 C 812.179688 433.167969 806.082031 403.484375 788.988281 398.273438 C 771.898438 393.0625 750.28125 414.300781 740.707031 445.703125 Z M 740.707031 445.703125 " clip-rule="nonzero"/></clipPath><clipPath id="d5254960ec"><path d="M 0 0 L 72 0 L 72 116 L 0 116 Z M 0 0 " clip-rule="nonzero"/></clipPath><clipPath id="2927f72601"><path d="M -12.625 105.570312 L 22.085938 -8.316406 L 83.988281 10.550781 L 49.273438 124.4375 Z M -12.625 105.570312 " clip-rule="nonzero"/></clipPath><clipPath id="222bdb4b91"><path d="M 4.707031 48.703125 C -4.867188 80.109375 1.230469 109.792969 18.324219 115.003906 C 35.417969 120.214844 57.035156 98.976562 66.605469 67.574219 C 76.179688 36.167969 70.082031 6.484375 52.988281 1.273438 C 35.898438 -3.9375 14.28125 17.300781 4.707031 48.703125 Z M 4.707031 48.703125 " clip-rule="nonzero"/></clipPath><clipPath id="ddaaefd749"><rect x="0" width="72" y="0" height="116"/></clipPath><clipPath id="1b48bfe7ec"><path d="M 710 495 L 782 495 L 782 611 L 710 611 Z M 710 495 " clip-rule="nonzero"/></clipPath><clipPath id="0af2e28d94"><path d="M 697.90625 600.535156 L 732.621094 486.648438 L 794.519531 505.515625 L 759.808594 619.402344 Z M 697.90625 600.535156 " clip-rule="nonzero"/></clipPath><clipPath id="380e0afbeb"><path d="M 715.238281 543.667969 C 705.667969 575.074219 711.765625 604.757812 728.859375 609.96875 C 745.949219 615.179688 767.566406 593.941406 777.140625 562.535156 C 786.714844 531.132812 780.617188 501.449219 763.523438 496.238281 C 746.429688 491.027344 724.8125 512.261719 715.238281 543.667969 Z M 715.238281 543.667969 " clip-rule="nonzero"/></clipPath><clipPath id="72a0efe0a1"><path d="M 0 0 L 72 0 L 72 116 L 0 116 Z M 0 0 " clip-rule="nonzero"/></clipPath><clipPath id="f2949618a4"><path d="M -12.09375 105.535156 L 22.621094 -8.351562 L 84.519531 10.515625 L 49.808594 124.402344 Z M -12.09375 105.535156 " clip-rule="nonzero"/></clipPath><clipPath id="ab9d72e9cb"><path d="M 5.238281 48.667969 C -4.332031 80.074219 1.765625 109.757812 18.859375 114.96875 C 35.949219 120.179688 57.566406 98.941406 67.140625 67.535156 C 76.714844 36.132812 70.617188 6.449219 53.523438 1.238281 C 36.429688 -3.972656 14.8125 17.261719 5.238281 48.667969 Z M 5.238281 48.667969 " clip-rule="nonzero"/></clipPath><clipPath id="4478dd92e8"><rect x="0" width="72" y="0" height="116"/></clipPath><clipPath id="4531bdcd97"><rect x="0" width="883" y="0" height="815"/></clipPath></defs><g clip-path="url(#89e7ad2694)"><g clip-path="url(#fc5d2022fb)"><g transform="matrix(1, 0, 0, 1, 129, 345)"><g clip-path="url(#01a37c00c7)"><g clip-path="url(#63f206345b)"><g clip-path="url(#1f0b3f024d)"><path fill="#000000" d="M 0.601562 0.601562 L 1037.398438 0.601562 L 1037.398438 1037.398438 L 0.601562 1037.398438 Z M 0.601562 0.601562 " fill-opacity="1" fill-rule="nonzero"/></g></g></g></g></g></g><g clip-path="url(#c5ab15bf4c)"><g clip-path="url(#6bc38ea682)"><g transform="matrix(1, 0, 0, 1, 435, 390)"><g clip-path="url(#f610c7e4f8)"><g clip-path="url(#69d67cf6be)"><g clip-path="url(#c97a32b949)"><path fill="#290446" d="M 0.53125 0.273438 L 389.332031 0.273438 L 389.332031 398.1875 L 0.53125 398.1875 Z M 0.53125 0.273438 " fill-opacity="1" fill-rule="nonzero"/></g></g></g></g></g></g><g clip-path="url(#d1f3ad9977)"><g clip-path="url(#83447e179a)"><g transform="matrix(1, 0, 0, 1, 340, 415)"><g clip-path="url(#2f50cff2df)"><g clip-path="url(#5885025924)"><g clip-path="url(#a847722c03)"><path fill="#290446" d="M 0.617188 0.828125 L 389.417969 0.828125 L 389.417969 398.738281 L 0.617188 398.738281 Z M 0.617188 0.828125 " fill-opacity="1" fill-rule="nonzero"/></g></g></g></g></g></g><g clip-path="url(#ed26e5d576)"><g clip-path="url(#eae8bb1839)"><g transform="matrix(1, 0, 0, 1, 259, 466)"><g clip-path="url(#52d2c154b6)"><g clip-path="url(#615bccf5fe)"><g clip-path="url(#36b4da7157)"><path fill="#290446" d="M 0.199219 0.199219 L 389 0.199219 L 389 398.113281 L 0.199219 398.113281 Z M 0.199219 0.199219 " fill-opacity="1" fill-rule="nonzero"/></g></g></g></g></g></g><g clip-path="url(#01fd87c8a0)"><g clip-path="url(#eb4561bcad)"><g transform="matrix(1, 0, 0, 1, 194, 553)"><g clip-path="url(#8615358508)"><g clip-path="url(#0c170750d6)"><g clip-path="url(#fae300827f)"><path fill="#290446" d="M 0.402344 0.488281 L 389.203125 0.488281 L 389.203125 398.402344 L 0.402344 398.402344 Z M 0.402344 0.488281 " fill-opacity="1" fill-rule="nonzero"/></g></g></g></g></g></g><g clip-path="url(#07e824f127)"><g clip-path="url(#0789ea3cad)"><g transform="matrix(1, 0, 0, 1, 176, 639)"><g clip-path="url(#085d49bc79)"><g clip-path="url(#ead560e7e8)"><g clip-path="url(#b7ab082cd4)"><path fill="#290446" d="M 0.289062 0.273438 L 389.089844 0.273438 L 389.089844 398.1875 L 0.289062 398.1875 Z M 0.289062 0.273438 " fill-opacity="1" fill-rule="nonzero"/></g></g></g></g></g></g><g clip-path="url(#a6539b918e)"><g clip-path="url(#37360e5106)"><g transform="matrix(1, 0, 0, 1, 535, 401)"><g clip-path="url(#7b024bb264)"><g clip-path="url(#c73c3183bc)"><g clip-path="url(#502be77259)"><path fill="#290446" d="M 0.0195312 0.3125 L 388.820312 0.3125 L 388.820312 398.222656 L 0.0195312 398.222656 Z M 0.0195312 0.3125 " fill-opacity="1" fill-rule="nonzero"/></g></g></g></g></g></g><g clip-path="url(#5984cb2d34)"><g clip-path="url(#2b60e286d2)"><g transform="matrix(1, 0, 0, 1, 629, 440)"><g clip-path="url(#8271f21e07)"><g clip-path="url(#a17fb6bff4)"><g clip-path="url(#763c505188)"><path fill="#290446" d="M 0.929688 0.375 L 389.730469 0.375 L 389.730469 398.285156 L 0.929688 398.285156 Z M 0.929688 0.375 " fill-opacity="1" fill-rule="nonzero"/></g></g></g></g></g></g><g clip-path="url(#ded5a27d63)"><g clip-path="url(#d2beedea5e)"><g transform="matrix(1, 0, 0, 1, 489, 577)"><g clip-path="url(#88fff46891)"><g clip-path="url(#c5b8e2c8d1)"><g clip-path="url(#255d2e95d0)"><path fill="#290446" d="M 0.84375 0.355469 L 389.644531 0.355469 L 389.644531 398.269531 L 0.84375 398.269531 Z M 0.84375 0.355469 " fill-opacity="1" fill-rule="nonzero"/></g></g></g></g></g></g><g clip-path="url(#c44b2fb240)"><g clip-path="url(#3fc25eb498)"><g transform="matrix(1, 0, 0, 1, 708, 535)"><g clip-path="url(#38297b835a)"><g clip-path="url(#71a3124e2b)"><g clip-path="url(#fcca99279c)"><path fill="#290446" d="M 0.140625 0.148438 L 388.9375 0.148438 L 388.9375 398.058594 L 0.140625 398.058594 Z M 0.140625 0.148438 " fill-opacity="1" fill-rule="nonzero"/></g></g></g></g></g></g><g clip-path="url(#47b74330f2)"><g clip-path="url(#e85bd3d425)"><g transform="matrix(1, 0, 0, 1, 741, 639)"><g clip-path="url(#b436402177)"><g clip-path="url(#9a07ce244d)"><g clip-path="url(#6396dfbb87)"><path fill="#290446" d="M 0.21875 0.273438 L 389.019531 0.273438 L 389.019531 398.1875 L 0.21875 398.1875 Z M 0.21875 0.273438 " fill-opacity="1" fill-rule="nonzero"/></g></g></g></g></g></g><g clip-path="url(#ba6809b5d5)"><g clip-path="url(#993d392068)"><g transform="matrix(1, 0, 0, 1, 684, 665)"><g clip-path="url(#5c77c21d27)"><g clip-path="url(#969b470024)"><g clip-path="url(#10aa93e6e2)"><path fill="#290446" d="M 0.246094 0.101562 L 389.042969 0.101562 L 389.042969 398.011719 L 0.246094 398.011719 Z M 0.246094 0.101562 " fill-opacity="1" fill-rule="nonzero"/></g></g></g></g></g></g><g clip-path="url(#486d6fbcb0)"><g clip-path="url(#d94c553207)"><g transform="matrix(1, 0, 0, 1, 176, 691)"><g clip-path="url(#5172072f89)"><g clip-path="url(#7c23782633)"><g clip-path="url(#55eebf62da)"><path fill="#290446" d="M 0.289062 0.0898438 L 389.089844 0.0898438 L 389.089844 398 L 0.289062 398 Z M 0.289062 0.0898438 " fill-opacity="1" fill-rule="nonzero"/></g></g></g></g></g></g><g clip-path="url(#8eea29b1b7)"><g clip-path="url(#4d1ff8d570)"><g transform="matrix(1, 0, 0, 1, 702, 975)"><g clip-path="url(#013f368ca1)"><g clip-path="url(#a320f7b35d)"><g clip-path="url(#b52526c48f)"><path fill="#07697a" d="M 0.1875 0.15625 L 305.746094 0.15625 L 305.746094 312.878906 L 0.1875 312.878906 Z M 0.1875 0.15625 " fill-opacity="1" fill-rule="nonzero"/></g></g></g></g></g></g><g clip-path="url(#70e4b645e6)"><g clip-path="url(#354ce56a9e)"><g clip-path="url(#c4b513cb2b)"><g transform="matrix(1, 0, 0, 1, 194, 856)"><g clip-path="url(#b1b36b42fe)"><g clip-path="url(#8cf22a8d39)"><g clip-path="url(#6a3eb132b1)"><g clip-path="url(#d22a4e467a)"><path fill="#07697a" d="M 73.882812 -88.898438 L 802.246094 172.492188 L 667.875 546.910156 L -60.484375 285.519531 Z M 73.882812 -88.898438 " fill-opacity="1" fill-rule="nonzero"/></g></g></g></g></g></g></g></g><g clip-path="url(#6b14c6640f)"><g clip-path="url(#7b9753af6f)"><g clip-path="url(#69ccc66123)"><g transform="matrix(1, 0, 0, 1, 740, 901)"><g clip-path="url(#4fdbe60180)"><g clip-path="url(#39b98b6474)"><g clip-path="url(#a16439eb94)"><g clip-path="url(#e9ca2b945a)"><path fill="#07697a" d="M -54.804688 143.285156 L 283.574219 -62.820312 L 422.425781 165.136719 L 84.050781 371.246094 Z M -54.804688 143.285156 " fill-opacity="1" fill-rule="nonzero"/></g></g></g></g></g></g></g></g><g clip-path="url(#df1b064cfe)"><g clip-path="url(#cc386d430e)"><path stroke-linecap="butt" transform="matrix(0.75, 0, 0, 0.75, 154.977055, 370.977038)" fill="none" stroke-linejoin="miter" d="M 657.358773 -0.000634513 C 294.311868 -0.000634513 -0.000657046 294.31189 -0.000657046 657.358796 C -0.000657046 1020.41091 294.311868 1314.718226 657.358773 1314.718226 C 1020.410887 1314.718226 1314.718204 1020.41091 1314.718204 657.358796 C 1314.718204 294.31189 1020.410887 -0.000634513 657.358773 -0.000634513 Z M 657.358773 -0.000634513 " stroke="#07697a" stroke-width="132" stroke-opacity="1" stroke-miterlimit="4"/></g></g><g clip-path="url(#bf1f6d8827)"><g clip-path="url(#4b84379899)"><g clip-path="url(#41eee029ce)"><g transform="matrix(1, 0, 0, 1, 299, 955)"><g clip-path="url(#5b21f1623b)"><g clip-path="url(#158996cd1e)"><g clip-path="url(#856c62100f)"><g clip-path="url(#f23160a6a8)"><path fill="#07697a" d="M 69.066406 -65.011719 L 548.570312 107.070312 L 426.199219 448.054688 L -53.304688 275.972656 Z M 69.066406 -65.011719 " fill-opacity="1" fill-rule="nonzero"/></g></g></g></g></g></g></g></g><g clip-path="url(#624942d441)"><g clip-path="url(#e829ff858a)"><g transform="matrix(1, 0, 0, 1, 409, 477)"><g clip-path="url(#a86e9a94f4)"><g clip-path="url(#9bb8a77379)"><g clip-path="url(#972bf62b75)"><path fill="#a6a6a6" d="M 0.425781 0.21875 L 109.847656 0.21875 L 109.847656 112.207031 L 0.425781 112.207031 Z M 0.425781 0.21875 " fill-opacity="1" fill-rule="nonzero"/></g></g></g></g></g></g><g clip-path="url(#f8f26d23b6)"><g clip-path="url(#7ca7c4da39)"><path stroke-linecap="butt" transform="matrix(0.75, 0, 0, 0.75, 409.426721, 477.219104)" fill="none" stroke-linejoin="miter" d="M 72.94667 -0.000471794 C 32.660208 -0.000471794 -0.0012531 33.416198 -0.0012531 74.634951 C -0.0012531 115.853705 32.660208 149.265166 72.94667 149.265166 C 113.227923 149.265166 145.889384 115.853705 145.889384 74.634951 C 145.889384 33.416198 113.227923 -0.000471794 72.94667 -0.000471794 Z M 72.94667 -0.000471794 " stroke="#000000" stroke-width="20" stroke-opacity="1" stroke-miterlimit="4"/></g></g><g clip-path="url(#8c3f8967e9)"><g clip-path="url(#856047e6c2)"><g transform="matrix(1, 0, 0, 1, 301, 570)"><g clip-path="url(#9f44f85999)"><g clip-path="url(#4c41a78393)"><g clip-path="url(#19e83181e1)"><path fill="#a6a6a6" d="M 0.5625 0.09375 L 87.804688 0.09375 L 87.804688 89.382812 L 0.5625 89.382812 Z M 0.5625 0.09375 " fill-opacity="1" fill-rule="nonzero"/></g></g></g></g></g></g><g clip-path="url(#c5adda477b)"><g clip-path="url(#a8896a3b2e)"><path stroke-linecap="butt" transform="matrix(0.75, 0, 0, 0.75, 301.560559, 570.098616)" fill="none" stroke-linejoin="miter" d="M 58.158839 -0.00127971 C 26.039047 -0.00127971 0.00258807 26.639346 0.00258807 59.50393 C 0.00258807 92.363305 26.039047 119.003931 58.158839 119.003931 C 90.273423 119.003931 116.31509 92.363305 116.31509 59.50393 C 116.31509 26.639346 90.273423 -0.00127971 58.158839 -0.00127971 Z M 58.158839 -0.00127971 " stroke="#000000" stroke-width="20" stroke-opacity="1" stroke-miterlimit="4"/></g></g><g clip-path="url(#257b10a0e8)"><g clip-path="url(#ad75136d59)"><g transform="matrix(1, 0, 0, 1, 266, 707)"><g clip-path="url(#58717f5109)"><g clip-path="url(#12705df191)"><g clip-path="url(#db4219afed)"><path fill="#a6a6a6" d="M 0.296875 0.257812 L 52.664062 0.257812 L 52.664062 53.851562 L 0.296875 53.851562 Z M 0.296875 0.257812 " fill-opacity="1" fill-rule="nonzero"/></g></g></g></g></g></g><g clip-path="url(#124657857e)"><g clip-path="url(#5aad8573aa)"><path stroke-linecap="butt" transform="matrix(0.75, 0, 0, 0.75, 266.295884, 707.260548)" fill="none" stroke-linejoin="miter" d="M 34.907575 0.00156035 C 15.626323 0.00156035 0.00132198 15.991145 0.00132198 35.715105 C 0.00132198 55.439065 15.626323 71.42865 34.907575 71.42865 C 54.183618 71.42865 69.813828 55.439065 69.813828 35.715105 C 69.813828 15.991145 54.183618 0.00156035 34.907575 0.00156035 Z M 34.907575 0.00156035 " stroke="#000000" stroke-width="20" stroke-opacity="1" stroke-miterlimit="4"/></g></g><g clip-path="url(#5380eb02e6)"><g clip-path="url(#edbb39b154)"><g transform="matrix(1, 0, 0, 1, 197, 966)"><g clip-path="url(#0bfe1f8d15)"><g clip-path="url(#5326d29e25)"><g clip-path="url(#673a52695c)"><path fill="#a6a6a6" d="M 0.121094 0.300781 L 69.296875 0.300781 L 69.296875 71.09375 L 0.121094 71.09375 Z M 0.121094 0.300781 " fill-opacity="1" fill-rule="nonzero"/></g></g></g></g></g></g><g clip-path="url(#766e6828ac)"><g clip-path="url(#27f1de7789)"><path stroke-linecap="butt" transform="matrix(0.75, 0, 0, 0.75, 197.121911, 966.301143)" fill="none" stroke-linejoin="miter" d="M 46.108289 -0.000481923 C 20.644745 -0.000481923 -0.00108958 21.119312 -0.00108958 47.176605 C -0.00108958 73.233899 20.644745 94.353693 46.108289 94.353693 C 71.577041 94.353693 92.217668 73.233899 92.217668 47.176605 C 92.217668 21.119312 71.577041 -0.000481923 46.108289 -0.000481923 Z M 46.108289 -0.000481923 " stroke="#000000" stroke-width="20" stroke-opacity="1" stroke-miterlimit="4"/></g></g><g clip-path="url(#7fc63b4e8e)"><g clip-path="url(#ad4789f649)"><g transform="matrix(1, 0, 0, 1, 279, 1005)"><g clip-path="url(#e491fe5b9e)"><g clip-path="url(#cef579125d)"><g clip-path="url(#bcb6e58125)"><path fill="#a6a6a6" d="M 0.113281 0.609375 L 61.617188 0.609375 L 61.617188 63.558594 L 0.113281 63.558594 Z M 0.113281 0.609375 " fill-opacity="1" fill-rule="nonzero"/></g></g></g></g></g></g><g clip-path="url(#a5af057e32)"><g clip-path="url(#c3495467c8)"><path stroke-linecap="butt" transform="matrix(0.75, 0, 0, 0.75, 279.115521, 1005.609419)" fill="none" stroke-linejoin="miter" d="M 40.997017 -0.0000591793 C 18.35639 -0.0000591793 0.00222221 18.781192 0.00222221 41.947861 C 0.00222221 65.109321 18.35639 83.890573 40.997017 83.890573 C 63.637644 83.890573 81.991812 65.109321 81.991812 41.947861 C 81.991812 18.781192 63.637644 -0.0000591793 40.997017 -0.0000591793 Z M 40.997017 -0.0000591793 " stroke="#000000" stroke-width="20" stroke-opacity="1" stroke-miterlimit="4"/></g></g><g clip-path="url(#d242af92b1)"><g clip-path="url(#ff93aef9e6)"><g transform="matrix(1, 0, 0, 1, 360, 1131)"><g clip-path="url(#ac412098ca)"><g clip-path="url(#4c787a5ad0)"><g clip-path="url(#edfc6b9330)"><path fill="#a6a6a6" d="M 0.921875 0.0390625 L 49.425781 0.0390625 L 49.425781 49.683594 L 0.921875 49.683594 Z M 0.921875 0.0390625 " fill-opacity="1" fill-rule="nonzero"/></g></g></g></g></g></g><g clip-path="url(#6141e2ee54)"><g clip-path="url(#173c961385)"><path stroke-linecap="butt" transform="matrix(0.75, 0, 0, 0.75, 360.924782, 1131.039865)" fill="none" stroke-linejoin="miter" d="M 32.32946 -0.00106977 C 14.475292 -0.00106977 0.00133239 14.811431 0.00133239 33.077058 C 0.00133239 51.347893 14.475292 66.155186 32.32946 66.155186 C 50.183628 66.155186 64.657588 51.347893 64.657588 33.077058 C 64.657588 14.811431 50.183628 -0.00106977 32.32946 -0.00106977 Z M 32.32946 -0.00106977 " stroke="#000000" stroke-width="20" stroke-opacity="1" stroke-miterlimit="4"/></g></g><g clip-path="url(#3efd628e3c)"><g clip-path="url(#0193382046)"><g transform="matrix(1, 0, 0, 1, 292, 1085)"><g clip-path="url(#f19dc75e4d)"><g clip-path="url(#b0a809c002)"><g clip-path="url(#11d0c6283e)"><path fill="#a6a6a6" d="M 0.480469 0.078125 L 69.652344 0.078125 L 69.652344 70.875 L 0.480469 70.875 Z M 0.480469 0.078125 " fill-opacity="1" fill-rule="nonzero"/></g></g></g></g></g></g><g clip-path="url(#d36d24745d)"><g clip-path="url(#2bb460056a)"><path stroke-linecap="butt" transform="matrix(0.75, 0, 0, 0.75, 292.479349, 1085.081165)" fill="none" stroke-linejoin="miter" d="M 46.110873 0.0011554 C 20.64212 0.0011554 0.00149365 21.120949 0.00149365 47.178243 C 0.00149365 73.230328 20.64212 94.35533 46.110873 94.35533 C 71.574416 94.35533 92.220251 73.230328 92.220251 47.178243 C 92.220251 21.120949 71.574416 0.0011554 46.110873 0.0011554 Z M 46.110873 0.0011554 " stroke="#000000" stroke-width="20" stroke-opacity="1" stroke-miterlimit="4"/></g></g><g transform="matrix(1, 0, 0, 1, 267, 510)"><g clip-path="url(#4531bdcd97)"><g clip-path="url(#c98ef7c192)"><g clip-path="url(#f3f5e41d6c)"><g clip-path="url(#43ba9eda61)"><g transform="matrix(1, 0, 0, 1, 82, 260)"><g clip-path="url(#f72820e60e)"><g clip-path="url(#fe5b7798cb)"><g clip-path="url(#5d79326533)"><g clip-path="url(#9a7c6f59d5)"><path fill="#000000" d="M 31.621094 -52.207031 L 586.039062 116.78125 L 526.9375 310.675781 L -27.476562 141.6875 Z M 31.621094 -52.207031 " fill-opacity="1" fill-rule="nonzero"/></g></g></g></g></g></g></g></g><g clip-path="url(#7671e3f349)"><g clip-path="url(#bb37badb4e)"><g clip-path="url(#2457aba93d)"><g transform="matrix(1, 0, 0, 1, 443, 337)"><g clip-path="url(#a250d7e81c)"><g clip-path="url(#e2ae63cffb)"><g clip-path="url(#1d59aff23e)"><g clip-path="url(#8cc7c718d3)"><path fill="#000000" d="M 373.070312 97.78125 L 321.152344 268.105469 L 1.128906 170.5625 L 53.046875 0.238281 Z M 373.070312 97.78125 " fill-opacity="1" fill-rule="nonzero"/></g></g></g></g></g></g></g></g><g clip-path="url(#6cd03dfb5b)"><g clip-path="url(#0fb4eed72f)"><g clip-path="url(#1355d0185f)"><g transform="matrix(1, 0, 0, 1, 603, 449)"><g clip-path="url(#b72d4058dd)"><g clip-path="url(#e96b38a1ff)"><g clip-path="url(#dcfde701a3)"><g clip-path="url(#c7039e74e3)"><path fill="#000000" d="M 10.078125 -16.84375 L 196.507812 39.980469 L 177.640625 101.882812 L -8.789062 45.058594 Z M 10.078125 -16.84375 " fill-opacity="1" fill-rule="nonzero"/></g></g></g></g></g></g></g></g><g clip-path="url(#5721f438b2)"><g clip-path="url(#5ca068ce27)"><g clip-path="url(#c99df6602f)"><g transform="matrix(1, 0, 0, 1, 275, 230)"><g clip-path="url(#17ef4acab8)"><g clip-path="url(#b950e4b72b)"><g clip-path="url(#b0d3da97b1)"><g clip-path="url(#76e2f5053c)"><path fill="#000000" d="M 14.5 -13.171875 L 128.367188 21.53125 L 102.90625 105.054688 L -10.957031 70.347656 Z M 14.5 -13.171875 " fill-opacity="1" fill-rule="nonzero"/></g></g></g></g></g></g></g></g><g clip-path="url(#c5554e714e)"><g clip-path="url(#1ce504418e)"><g clip-path="url(#956c46bc7f)"><g transform="matrix(1, 0, 0, 1, 283, 271)"><g clip-path="url(#d148e74847)"><g clip-path="url(#a65d06fe37)"><g clip-path="url(#41d57697c7)"><g clip-path="url(#e686415da0)"><path fill="#000000" d="M 10.539062 -12.601562 L 124.183594 22.039062 L 105.316406 83.9375 L -8.328125 49.296875 Z M 10.539062 -12.601562 " fill-opacity="1" fill-rule="nonzero"/></g></g></g></g></g></g></g></g><g clip-path="url(#7bec18091c)"><g clip-path="url(#5478634e4a)"><g clip-path="url(#b0ce1527f9)"><g transform="matrix(1, 0, 0, 1, 736, 397)"><g clip-path="url(#ddaaefd749)"><g clip-path="url(#d5254960ec)"><g clip-path="url(#2927f72601)"><g clip-path="url(#222bdb4b91)"><path fill="#000000" d="M -12.625 105.570312 L 22.015625 -8.074219 L 83.914062 10.792969 L 49.273438 124.4375 Z M -12.625 105.570312 " fill-opacity="1" fill-rule="nonzero"/></g></g></g></g></g></g></g></g><g clip-path="url(#1b48bfe7ec)"><g clip-path="url(#0af2e28d94)"><g clip-path="url(#380e0afbeb)"><g transform="matrix(1, 0, 0, 1, 710, 495)"><g clip-path="url(#4478dd92e8)"><g clip-path="url(#72a0efe0a1)"><g clip-path="url(#f2949618a4)"><g clip-path="url(#ab9d72e9cb)"><path fill="#000000" d="M -12.09375 105.535156 L 22.546875 -8.109375 L 84.449219 10.757812 L 49.808594 124.402344 Z M -12.09375 105.535156 " fill-opacity="1" fill-rule="nonzero"/></g></g></g></g></g></g></g></g></g></g></svg>